<svg width="179" height="51" viewBox="0 0 179 51" fill="none" xmlns="http://www.w3.org/2000/svg">
<path d="M164.627 16.8636H167.697V21.5746L167.51 23.6605H167.697C168.025 23.1136 168.494 22.6683 169.104 22.3246C169.729 21.9652 170.424 21.7855 171.189 21.7855C172.674 21.7855 173.768 22.223 174.471 23.098C175.189 23.973 175.549 25.1683 175.549 26.684V33.6449H172.479V27.059C172.479 26.2621 172.291 25.6605 171.916 25.2543C171.541 24.8324 171.018 24.6215 170.346 24.6215C169.924 24.6215 169.549 24.7152 169.221 24.9027C168.893 25.0746 168.611 25.3168 168.377 25.6293C168.158 25.9418 167.986 26.309 167.861 26.7308C167.752 27.1371 167.697 27.5746 167.697 28.0433V33.6449H164.627V16.8636Z" fill="white"/>
<path d="M163.457 30.7152C162.957 31.684 162.254 32.4808 161.348 33.1058C160.457 33.7152 159.34 34.0199 157.996 34.0199C157.105 34.0199 156.285 33.8715 155.535 33.5746C154.801 33.2621 154.16 32.8324 153.613 32.2855C153.082 31.7386 152.66 31.098 152.348 30.3636C152.051 29.6136 151.902 28.7933 151.902 27.9027C151.902 27.0121 152.051 26.1918 152.348 25.4418C152.66 24.6918 153.082 24.0511 153.613 23.5199C154.16 22.973 154.801 22.5511 155.535 22.2543C156.285 21.9418 157.105 21.7855 157.996 21.7855C159.324 21.7855 160.441 22.0902 161.348 22.6996C162.254 23.309 162.918 24.098 163.34 25.0668L160.527 26.2386C160.262 25.7074 159.918 25.309 159.496 25.0433C159.09 24.7621 158.574 24.6215 157.949 24.6215C157.543 24.6215 157.16 24.6996 156.801 24.8558C156.441 25.0121 156.121 25.2308 155.84 25.5121C155.574 25.7933 155.363 26.1371 155.207 26.5433C155.051 26.9496 154.973 27.4027 154.973 27.9027C154.973 28.4027 155.051 28.8558 155.207 29.2621C155.363 29.6683 155.574 30.0121 155.84 30.2933C156.121 30.5746 156.441 30.7933 156.801 30.9496C157.16 31.1058 157.543 31.184 157.949 31.184C158.59 31.184 159.129 31.0433 159.566 30.7621C160.02 30.4652 160.379 30.0433 160.645 29.4965L163.457 30.7152Z" fill="white"/>
<path d="M151 30.8793C150.469 31.8168 149.75 32.5746 148.844 33.1527C147.953 33.7308 146.859 34.0199 145.563 34.0199C144.688 34.0199 143.875 33.8715 143.125 33.5746C142.391 33.2621 141.75 32.8324 141.203 32.2855C140.656 31.7386 140.227 31.098 139.914 30.3636C139.617 29.6136 139.469 28.7933 139.469 27.9027C139.469 27.0746 139.617 26.2933 139.914 25.559C140.211 24.809 140.625 24.1605 141.156 23.6136C141.688 23.0511 142.313 22.6058 143.031 22.2777C143.766 21.9496 144.57 21.7855 145.445 21.7855C146.367 21.7855 147.188 21.9418 147.906 22.2543C148.625 22.5511 149.227 22.973 149.711 23.5199C150.195 24.0511 150.563 24.684 150.813 25.4183C151.063 26.1527 151.188 26.9496 151.188 27.809C151.188 27.9183 151.188 28.0121 151.188 28.0902C151.172 28.184 151.164 28.2699 151.164 28.348C151.148 28.4261 151.141 28.5121 151.141 28.6058H142.492C142.555 29.0746 142.68 29.4808 142.867 29.8246C143.07 30.1527 143.313 30.434 143.594 30.6683C143.891 30.8871 144.211 31.0511 144.555 31.1605C144.898 31.2543 145.25 31.3011 145.609 31.3011C146.313 31.3011 146.891 31.1449 147.344 30.8324C147.813 30.5043 148.18 30.098 148.445 29.6136L151 30.8793ZM148.211 26.4261C148.195 26.223 148.125 25.9965 148 25.7465C147.891 25.4965 147.719 25.2621 147.484 25.0433C147.266 24.8246 146.984 24.6449 146.641 24.5043C146.313 24.3636 145.914 24.2933 145.445 24.2933C144.789 24.2933 144.211 24.4808 143.711 24.8558C143.211 25.2308 142.859 25.7543 142.656 26.4261H148.211Z" fill="white"/>
<path d="M132.979 33.6449V19.8636H128.291V16.8636H140.83V19.8636H136.143V33.6449H132.979Z" fill="white"/>
<path d="M127.596 30.8793C127.064 31.8168 126.346 32.5746 125.439 33.1527C124.549 33.7308 123.455 34.0199 122.158 34.0199C121.283 34.0199 120.471 33.8715 119.721 33.5746C118.986 33.2621 118.346 32.8324 117.799 32.2855C117.252 31.7386 116.822 31.098 116.51 30.3636C116.213 29.6136 116.064 28.7933 116.064 27.9027C116.064 27.0746 116.213 26.2933 116.51 25.559C116.807 24.809 117.221 24.1605 117.752 23.6136C118.283 23.0511 118.908 22.6058 119.627 22.2777C120.361 21.9496 121.166 21.7855 122.041 21.7855C122.963 21.7855 123.783 21.9418 124.502 22.2543C125.221 22.5511 125.822 22.973 126.307 23.5199C126.791 24.0511 127.158 24.684 127.408 25.4183C127.658 26.1527 127.783 26.9496 127.783 27.809C127.783 27.9183 127.783 28.0121 127.783 28.0902C127.768 28.184 127.76 28.2699 127.76 28.348C127.744 28.4261 127.736 28.5121 127.736 28.6058H119.088C119.15 29.0746 119.275 29.4808 119.463 29.8246C119.666 30.1527 119.908 30.434 120.189 30.6683C120.486 30.8871 120.807 31.0511 121.15 31.1605C121.494 31.2543 121.846 31.3011 122.205 31.3011C122.908 31.3011 123.486 31.1449 123.939 30.8324C124.408 30.5043 124.775 30.098 125.041 29.6136L127.596 30.8793ZM124.807 26.4261C124.791 26.223 124.721 25.9965 124.596 25.7465C124.486 25.4965 124.314 25.2621 124.08 25.0433C123.861 24.8246 123.58 24.6449 123.236 24.5043C122.908 24.3636 122.51 24.2933 122.041 24.2933C121.385 24.2933 120.807 24.4808 120.307 24.8558C119.807 25.2308 119.455 25.7543 119.252 26.4261H124.807Z" fill="white"/>
<path d="M108.588 22.1605H111.471V23.7543H111.658C111.799 23.473 111.986 23.2152 112.221 22.9808C112.455 22.7465 112.713 22.5433 112.994 22.3715C113.291 22.1996 113.604 22.0668 113.932 21.973C114.275 21.8793 114.611 21.8324 114.939 21.8324C115.346 21.8324 115.689 21.8715 115.971 21.9496C116.268 22.0277 116.518 22.1293 116.721 22.2543L115.9 25.0433C115.713 24.9496 115.502 24.8793 115.268 24.8324C115.049 24.7699 114.775 24.7386 114.447 24.7386C114.025 24.7386 113.643 24.8246 113.299 24.9965C112.955 25.1527 112.658 25.3793 112.408 25.6761C112.174 25.973 111.986 26.3246 111.846 26.7308C111.721 27.1215 111.658 27.5511 111.658 28.0199V33.6449H108.588V22.1605Z" fill="white"/>
<path d="M103.779 32.1449H103.592C103.232 32.723 102.748 33.184 102.139 33.5277C101.529 33.8558 100.834 34.0199 100.053 34.0199C98.5996 34.0199 97.5137 33.5746 96.7949 32.684C96.0918 31.7933 95.7402 30.6058 95.7402 29.1215V22.1605H98.8105V28.7465C98.8105 29.5746 98.9902 30.1918 99.3496 30.598C99.7246 30.9886 100.264 31.184 100.967 31.184C101.389 31.184 101.756 31.098 102.068 30.9261C102.396 30.7386 102.67 30.4965 102.889 30.1996C103.123 29.8871 103.295 29.5277 103.404 29.1215C103.529 28.6996 103.592 28.2543 103.592 27.7855V22.1605H106.662V33.6449H103.779V32.1449Z" fill="white"/>
<path d="M88.3945 24.7855H86.3789V22.1605H88.3945V18.6449H91.4648V22.1605H94.2773V24.7855H91.4648V29.2387C91.4648 29.5043 91.4883 29.7543 91.5352 29.9886C91.5977 30.2074 91.707 30.3949 91.8633 30.5512C92.082 30.8012 92.3945 30.9262 92.8008 30.9262C93.0664 30.9262 93.2773 30.9027 93.4336 30.8558C93.5898 30.7933 93.7383 30.7152 93.8789 30.6215L94.7461 33.3168C94.3867 33.4887 93.9961 33.6137 93.5742 33.6918C93.168 33.7855 92.7148 33.8324 92.2148 33.8324C91.6367 33.8324 91.1133 33.7465 90.6445 33.5746C90.1914 33.3871 89.8086 33.1371 89.4961 32.8246C88.7617 32.1215 88.3945 31.1215 88.3945 29.8246V24.7855Z" fill="white"/>
<path d="M82.2051 32.1449H82.0176C81.6582 32.723 81.1738 33.184 80.5645 33.5277C79.9551 33.8558 79.2598 34.0199 78.4785 34.0199C77.0254 34.0199 75.9395 33.5746 75.2207 32.684C74.5176 31.7933 74.166 30.6058 74.166 29.1215V22.1605H77.2363V28.7465C77.2363 29.5746 77.416 30.1918 77.7754 30.598C78.1504 30.9886 78.6895 31.184 79.3926 31.184C79.8145 31.184 80.1816 31.098 80.4941 30.9261C80.8223 30.7386 81.0957 30.4965 81.3145 30.1996C81.5488 29.8871 81.7207 29.5277 81.8301 29.1215C81.9551 28.6996 82.0176 28.2543 82.0176 27.7855V22.1605H85.0879V33.6449H82.2051V32.1449Z" fill="white"/>
<path d="M62.7266 16.8636H73.3672V19.8636H65.8906V23.9418H72.6172V26.9418H65.8906V33.6449H62.7266V16.8636Z" fill="white"/>
<path d="M33.332 50.5V42.1666C37.9431 42.1666 41.6654 38.4444 41.6654 33.8333H49.9987C49.9987 43.0555 42.5265 50.5 33.332 50.5Z" fill="#FFD11A"/>
<path d="M33.3327 50.5V42.1666C28.7216 42.1666 24.9993 38.4444 24.9993 33.8333H16.666C16.666 43.0555 24.1382 50.5 33.3327 50.5Z" fill="#FFD11A"/>
<path d="M0 33.8334H8.33333C8.33333 38.4445 12.0556 42.1667 16.6667 42.1667V50.5C7.47222 50.5 0 43.0556 0 33.8334Z" fill="#FFD11A"/>
<path d="M0 33.8334H8.33333C8.33333 29.2222 12.0556 25.5 16.6667 25.5V17.1667C7.47222 17.1667 0 24.6389 0 33.8334Z" fill="#FFD11A"/>
<path d="M16.6667 0.5V8.83333C12.0556 8.83333 8.33333 12.5556 8.33333 17.1667H0C0 7.97222 7.47222 0.5 16.6667 0.5Z" fill="#FFD11A"/>
<path d="M16.666 0.5V8.83333C21.2771 8.83333 24.9993 12.5556 24.9993 17.1667H33.3327C33.3327 7.97222 25.8605 0.5 16.666 0.5Z" fill="#FFD11A"/>
<path d="M50.0007 17.1667H41.6673C41.6673 12.5556 37.9451 8.83333 33.334 8.83333V0.5C42.5284 0.5 50.0007 7.97222 50.0007 17.1667Z" fill="#FFD11A"/>
<path d="M50.0007 17.1667H41.6673C41.6673 21.7778 37.9451 25.5 33.334 25.5V33.8334C42.5284 33.8334 50.0007 26.3889 50.0007 17.1667Z" fill="#FFD11A"/>
</svg>
